<?xml version="1.0" encoding="utf-8"?>
<!-- Generator: Adobe Illustrator 15.0.0, SVG Export Plug-In . SVG Version: 6.00 Build 0)  -->
<!DOCTYPE svg PUBLIC "-//W3C//DTD SVG 1.1//EN" "http://www.w3.org/Graphics/SVG/1.1/DTD/svg11.dtd">
<svg version="1.1" xmlns="http://www.w3.org/2000/svg" xmlns:xlink="http://www.w3.org/1999/xlink" x="0px" y="0px"
	 width="130.621px" height="194px" viewBox="0 0 130.621 194" enable-background="new 0 0 130.621 194" xml:space="preserve">
<g id="guides">
</g>
<g id="path">
	<circle fill="none" stroke="#000000" stroke-miterlimit="10" cx="48.198" cy="130.018" r="7.568"/>
	<circle fill="none" stroke="#000000" stroke-miterlimit="10" cx="86.277" cy="130.018" r="5.031"/>
	<path fill="none" stroke="#000000" stroke-miterlimit="10" d="M41.111,40.727l-0.001,77.016l0,0
		c-4.236,2.451-7.086,7.029-7.086,12.275c0,7.828,6.346,14.174,14.173,14.174s14.173-6.346,14.173-14.174
		c0-5.176-2.773-9.703-6.916-12.177l-0.171-77.114c0-3.914-3.173-7.086-7.086-7.086S41.111,36.813,41.111,40.727z"/>
	<path fill="none" stroke="#000000" stroke-miterlimit="10" d="M91.947,118.273c4.361,2.109,7.37,6.576,7.37,11.745
		c0,7.201-5.838,13.04-13.04,13.04s-13.04-5.838-13.04-13.04c0-5.169,3.008-9.636,7.37-11.745V16.632
		c0-3.132,2.538-5.669,5.669-5.669s5.669,2.537,5.669,5.669L91.947,118.273L91.947,118.273z"/>
</g>
</svg>
