<?xml version="1.0" encoding="utf-8"?>
<!-- Generator: Adobe Illustrator 15.0.0, SVG Export Plug-In . SVG Version: 6.00 Build 0)  -->
<!DOCTYPE svg PUBLIC "-//W3C//DTD SVG 1.1//EN" "http://www.w3.org/Graphics/SVG/1.1/DTD/svg11.dtd">
<svg version="1.1" xmlns="http://www.w3.org/2000/svg" xmlns:xlink="http://www.w3.org/1999/xlink" x="0px" y="0px" width="1126px"
	 height="756px" viewBox="0 0 1126 756" enable-background="new 0 0 1126 756" xml:space="preserve">
<g id="bg">
	
		<rect fill="none" stroke="#000000" stroke-width="0.25" stroke-linecap="round" stroke-linejoin="round" stroke-miterlimit="10" width="1126" height="756"/>
</g>
<g id="Guides" display="none">
	
		<line display="inline" fill="none" stroke="#000000" stroke-width="0.51" stroke-linecap="round" stroke-linejoin="round" stroke-miterlimit="10" stroke-dasharray="43.2,3.6,3.6,3.6" stroke-dashoffset="8" x1="275.216" y1="463.852" x2="275.216" y2="329.418"/>
	
		<line display="inline" fill="none" stroke="#000000" stroke-width="0.51" stroke-linecap="round" stroke-linejoin="round" stroke-miterlimit="10" stroke-dasharray="43.2,3.6,3.6,3.6" stroke-dashoffset="8" x1="261.043" y1="478.024" x2="126.61" y2="478.024"/>
	
		<line display="inline" fill="none" stroke="#000000" stroke-width="0.51" stroke-linecap="round" stroke-linejoin="round" stroke-miterlimit="10" stroke-dasharray="43.2,3.6,3.6,3.6" stroke-dashoffset="8" x1="275.216" y1="492.198" x2="275.216" y2="626.631"/>
	
		<line display="inline" fill="none" stroke="#000000" stroke-width="0.51" stroke-linecap="round" stroke-linejoin="round" stroke-miterlimit="10" stroke-dasharray="43.2,3.6,3.6,3.6" stroke-dashoffset="8" x1="289.39" y1="478.024" x2="423.822" y2="478.024"/>
	
		<path display="inline" fill="none" stroke="#000000" stroke-width="0.51" stroke-linecap="round" stroke-linejoin="round" stroke-miterlimit="10" d="
		M275.2,478.1h7.1 M275.2,478.1v7.101 M275.2,478.1h-7.1 M275.2,478.1V471"/>
	
		<path display="inline" fill="none" stroke="#000000" stroke-width="0.25" stroke-linecap="round" stroke-linejoin="round" stroke-miterlimit="10" d="
		M287.871,478.1l-0.1-2.2l-0.6-2.102l-0.9-1.9l-1.201-1.801l-1.5-1.501l-1.701-1.3l-1.901-1l-2.101-0.6l-2.101-0.3l-2.101,0.1
		l-2.101,0.4l-2,0.8l-1.901,1.2l-1.601,1.399l-1.3,1.701l-1.101,1.901l-0.7,2.001l-0.4,2.101v2.2l0.4,2.101l0.7,2.001l1.101,1.901
		l1.3,1.701l1.601,1.398l1.901,1.102l2,0.8l2.101,0.5h2.101l2.101-0.2l2.101-0.7l1.901-0.899l1.701-1.301l1.5-1.601l1.201-1.7
		l0.9-2.001l0.6-2.101L287.871,478.1 M292.273,478.1l-0.2,2.501l-0.5,2.401l-0.9,2.301l-1.201,2.201l-1.601,1.9l-1.8,1.7l-2,1.5
		l-2.201,1.102l-2.301,0.8l-2.501,0.5l-2.5,0.1l-2.401-0.3l-2.401-0.6l-2.301-1.001l-2.101-1.3l-1.9-1.602l-1.7-1.801l-1.401-2.099
		l-1-2.201l-0.7-2.401l-0.4-2.501v-2.502l0.4-2.4l0.7-2.401l1-2.201l1.401-2.099l1.7-1.901l1.9-1.601l2.101-1.301l2.301-0.9
		l2.401-0.7l2.401-0.2l2.5,0.101l2.501,0.4l2.301,0.8l2.201,1.2l2,1.4l1.8,1.701l1.601,2l1.201,2.201l0.9,2.301l0.5,2.4
		L292.273,478.1 M289.071,478.1l-0.2-2.2l-0.5-2.201l-0.9-2.102l-1.2-1.801l-1.401-1.7l-1.8-1.399l-1.901-1.101l-2.101-0.801
		l-2.201-0.5l-2.201-0.1l-2.201,0.3l-2.101,0.6l-2.101,1.001l-1.801,1.3l-1.601,1.501l-1.3,1.801l-1.101,1.9l-0.7,2.201l-0.3,2.201
		v2.2l0.3,2.201l0.7,2.101l1.101,2.001l1.3,1.8l1.601,1.501l1.801,1.3l2.101,0.9l2.101,0.601l2.201,0.301l2.201-0.101l2.201-0.399
		l2.101-0.802l1.901-1.1l1.8-1.401l1.401-1.698l1.2-1.901l0.9-2.001l0.5-2.201L289.071,478.1 M412.417,478.1l-0.2-7.103l-0.6-7.002
		l-0.901-7.003l-1.2-7.002l-1.7-6.802l-1.901-6.803l-2.401-6.702l-2.601-6.502l-3.001-6.403l-3.301-6.202l-3.702-6.102l-3.901-5.902
		l-4.202-5.602l-4.602-5.402l-4.802-5.202l-5.001-4.902l-5.302-4.702l-5.502-4.402l-5.802-4.102l-6.002-3.801l-6.102-3.401
		l-6.303-3.201l-6.502-2.801l-6.602-2.501l-6.703-2.201l-6.803-1.8l-7.002-1.401l-6.902-1.101l-7.103-0.7l-7.002-0.4h-7.103
		l-7.002,0.4l-7.003,0.7l-7.002,1.101l-6.902,1.401l-6.803,1.8l-6.802,2.201l-6.603,2.501l-6.402,2.801l-6.402,3.201l-6.102,3.401
		l-6.002,3.801l-5.702,4.102l-5.603,4.402l-5.301,4.702l-5.002,4.902l-4.802,5.202l-4.502,5.402l-4.301,5.602l-3.902,5.902
		l-3.601,6.102l-3.401,6.202l-3.001,6.403l-2.601,6.502l-2.3,6.702l-2.001,6.803l-1.601,6.802l-1.3,7.002l-0.9,7.003l-0.5,7.002
		l-0.2,7.103l0.2,7.003l0.5,7.103l0.9,7.003l1.3,6.902l1.601,6.902l2.001,6.803l2.3,6.604l2.601,6.601l3.001,6.403l3.401,6.201
		l3.601,6.103l3.902,5.803l4.301,5.702l4.502,5.401l4.802,5.202l5.002,4.902l5.301,4.602l5.603,4.401l5.702,4.102l6.002,3.801
		l6.102,3.502l6.402,3.102l6.402,2.899l6.603,2.501l6.802,2.102l6.803,1.801l6.902,1.401l7.002,1.1l7.003,0.8l7.002,0.301h7.103
		l7.002-0.301l7.103-0.8l6.902-1.1l7.002-1.401l6.803-1.801l6.703-2.102l6.602-2.501l6.502-2.899l6.303-3.102l6.102-3.502
		l6.002-3.801l5.802-4.102l5.502-4.401l5.302-4.602l5.001-4.902l4.802-5.202l4.602-5.401l4.202-5.702l3.901-5.803l3.702-6.103
		l3.301-6.201l3.001-6.403l2.601-6.601l2.401-6.604l1.901-6.803l1.7-6.902l1.2-6.902l0.901-7.003l0.6-7.103L412.417,478.1
		 M134.814,478.1l0.2-7.103l0.5-7.102l0.9-7.104l1.301-7.002l1.6-6.902l2.001-6.803l2.301-6.803l2.601-6.602l3-6.403l3.301-6.302
		l3.602-6.203l3.901-5.902l4.202-5.702l4.501-5.502l4.702-5.302l5.102-5.002l5.302-4.801l5.502-4.502l5.703-4.202l5.902-3.901
		l6.202-3.601l6.302-3.301l6.402-3.001l6.603-2.602l6.803-2.3l6.802-2l6.902-1.601l7.003-1.301l7.103-0.8l7.103-0.6l7.103-0.2
		l7.103,0.2l7.103,0.6l7.002,0.8l7.003,1.301l6.902,1.601l6.903,2l6.702,2.3l6.603,2.602l6.502,3.001l6.302,3.301l6.103,3.601
		l5.902,3.901l5.803,4.202l5.502,4.502l5.301,4.801l5.002,5.002l4.802,5.302l4.401,5.502l4.302,5.702l3.901,5.902l3.602,6.203
		l3.301,6.302l2.901,6.403l2.701,6.602l2.301,6.803l1.901,6.803l1.6,6.902l1.3,7.002l0.9,7.104l0.5,7.102l0.201,7.103l-0.201,7.104
		l-0.5,7.102l-0.9,7.003l-1.3,7.003l-1.6,7.002l-1.901,6.803l-2.301,6.702l-2.701,6.604l-2.901,6.502l-3.301,6.303l-3.602,6.102
		l-3.901,5.902l-4.302,5.803l-4.401,5.501l-4.802,5.302l-5.002,5.003l-5.301,4.801l-5.502,4.502l-5.803,4.201l-5.902,3.902
		l-6.103,3.602l-6.302,3.301l-6.502,2.9l-6.603,2.701l-6.702,2.301l-6.903,1.901l-6.902,1.601l-7.003,1.3l-7.002,0.901l-7.103,0.5
		l-7.103,0.2l-7.103-0.2l-7.103-0.5l-7.103-0.901l-7.003-1.3l-6.902-1.601l-6.802-1.901l-6.803-2.301l-6.603-2.701l-6.402-2.9
		l-6.302-3.301l-6.202-3.602l-5.902-3.902l-5.703-4.201l-5.502-4.502l-5.302-4.801l-5.102-5.003l-4.702-5.302l-4.501-5.501
		l-4.202-5.803l-3.901-5.902l-3.602-6.102l-3.301-6.303l-3-6.502l-2.601-6.604l-2.301-6.702l-2.001-6.803l-1.6-7.002l-1.301-7.003
		l-0.9-7.003l-0.5-7.102L134.814,478.1 M416.819,478.1l-0.201-7.202l-0.5-7.103l-0.9-7.203l-1.301-7.002l-1.6-7.002l-2-6.903
		l-2.301-6.803l-2.701-6.603l-3.001-6.502l-3.301-6.402l-3.602-6.202l-4.001-6.002l-4.202-5.802l-4.602-5.502l-4.801-5.301
		l-5.002-5.103l-5.402-4.801l-5.501-4.502l-5.802-4.302l-6.002-3.901l-6.203-3.701l-6.302-3.301l-6.502-3.001l-6.703-2.601
		l-6.802-2.401l-6.902-1.9l-6.903-1.601l-7.103-1.3l-7.103-0.901l-7.203-0.6l-7.103-0.1l-7.203,0.1l-7.203,0.6l-7.102,0.901
		l-7.003,1.3l-7.002,1.601l-6.903,1.9l-6.803,2.401l-6.602,2.601l-6.603,3.001l-6.302,3.301l-6.203,3.701l-6.002,3.901l-5.802,4.302
		l-5.502,4.502l-5.301,4.801l-5.102,5.103l-4.803,5.301l-4.501,5.502l-4.302,5.802l-3.901,6.002l-3.702,6.202l-3.3,6.402
		l-3.001,6.502l-2.601,6.603l-2.401,6.803l-1.9,6.903l-1.701,7.002l-1.201,7.002l-0.9,7.203l-0.601,7.103l-0.2,7.202l0.2,7.104
		l0.601,7.202l0.9,7.103l1.201,7.102l1.701,6.903l1.9,6.903l2.401,6.802l2.601,6.703l3.001,6.503l3.3,6.4l3.702,6.104l3.901,6.003
		l4.302,5.802l4.501,5.601l4.803,5.303l5.102,5.002l5.301,4.901l5.502,4.502l5.802,4.202l6.002,4.001l6.203,3.602l6.302,3.3
		l6.603,3.002l6.602,2.701l6.803,2.301l6.903,2.001l7.002,1.601l7.003,1.301l7.102,0.9l7.203,0.501l7.203,0.199l7.103-0.199
		l7.203-0.501l7.103-0.9l7.103-1.301l6.903-1.601l6.902-2.001l6.802-2.301l6.703-2.701l6.502-3.002l6.302-3.3l6.203-3.602
		l6.002-4.001l5.802-4.202l5.501-4.502l5.402-4.901l5.002-5.002l4.801-5.303l4.602-5.601l4.202-5.802l4.001-6.003l3.602-6.104
		l3.301-6.4l3.001-6.503l2.701-6.703l2.301-6.802l2-6.903l1.6-6.903l1.301-7.102l0.9-7.103l0.5-7.202L416.819,478.1 M94.9,652.465
		l2.801,2.801 M455.533,652.564l-2.801,2.701 M419.82,478.1l-0.1,7.203l-0.601,7.202l-0.9,7.103l-1.201,7.104l-1.601,7.002l-2,7.003
		l-2.3,6.802l-2.601,6.703l-3.001,6.603l-3.301,6.402l-3.601,6.302l-3.901,6.003l-4.202,5.902l-4.502,5.602l-4.801,5.402
		l-5.002,5.201l-5.302,4.901l-5.502,4.602l-5.702,4.402l-6.002,4.002l-6.203,3.802l-6.302,3.4l-6.503,3.101l-6.602,2.802
		l-6.802,2.501l-6.903,2.102l-7.002,1.8l-7.002,1.401l-7.202,1.1l-7.103,0.701l-7.203,0.399h-7.202l-7.203-0.399l-7.203-0.701
		l-7.103-1.1l-7.103-1.401l-7.002-1.8l-6.903-2.102l-6.703-2.501l-6.702-2.802l-6.502-3.101l-6.303-3.4l-6.202-3.802l-5.903-4.002
		l-5.802-4.402l-5.502-4.602l-5.301-4.901l-5.002-5.201l-4.802-5.402l-4.502-5.602l-4.201-5.902l-3.902-6.003l-3.601-6.302
		l-3.301-6.402l-2.901-6.603l-2.701-6.703l-2.3-6.802l-1.901-7.003l-1.601-7.002l-1.3-7.104l-0.901-7.103l-0.5-7.202l-0.2-7.203
		l0.2-7.202l0.5-7.202l0.901-7.203l1.3-7.103l1.601-7.002l1.901-6.902l2.3-6.902l2.701-6.703l2.901-6.603l3.301-6.402l3.601-6.202
		l3.902-6.103l4.201-5.802l4.502-5.702l4.802-5.401l5.002-5.102l5.301-4.902l5.502-4.702l5.802-4.302l5.903-4.102l6.202-3.701
		l6.303-3.501l6.502-3.101l6.702-2.801l6.703-2.501l6.903-2.101l7.002-1.801l7.103-1.4l7.103-1.101l7.203-0.701l7.203-0.3h7.202
		l7.203,0.3l7.103,0.701l7.202,1.101l7.002,1.4l7.002,1.801l6.903,2.101l6.802,2.501l6.602,2.801l6.503,3.101l6.302,3.501
		l6.203,3.701l6.002,4.102l5.702,4.302l5.502,4.702l5.302,4.902l5.002,5.102l4.801,5.401l4.502,5.702l4.202,5.802l3.901,6.103
		l3.601,6.202l3.301,6.402l3.001,6.603l2.601,6.703l2.3,6.902l2,6.902l1.601,7.002l1.201,7.103l0.9,7.203l0.601,7.202L419.82,478.1
		 M449.631,474.999l-0.4-7.903l-0.6-8.002l-1.101-7.903l-1.4-7.804l-1.701-7.802l-2.201-7.603l-2.401-7.603l-2.801-7.503
		l-3.201-7.303l-3.401-7.103l-3.801-7.002l-4.202-6.903l-4.401-6.603l-4.702-6.402l-5.002-6.203l-5.302-6.002l-5.502-5.702
		l-5.802-5.402l-6.102-5.202l-6.302-4.902l-6.502-4.602l-6.703-4.302l-6.902-4.001l-7.002-3.701l-7.303-3.302l-7.302-3l-7.503-2.701
		l-7.603-2.301l-7.803-2l-7.803-1.7l-7.802-1.201l-7.903-0.9l-8.003-0.6l-7.903-0.2l-8.002,0.2l-7.903,0.6l-8.003,0.9l-7.803,1.201
		l-7.802,1.7l-7.704,2l-7.603,2.301l-7.503,2.701l-7.402,3l-7.203,3.302l-7.103,3.701l-6.902,4.001l-6.703,4.302l-6.502,4.602
		l-6.302,4.902l-6.002,5.202l-5.802,5.402l-5.602,5.702l-5.302,6.002l-5.001,6.203l-4.702,6.402l-4.401,6.603l-4.102,6.903
		l-3.801,7.002l-3.501,7.103l-3.102,7.303l-2.801,7.503l-2.501,7.603l-2.101,7.603l-1.801,7.802l-1.4,7.804l-1,7.903l-0.7,8.002
		l-0.3,7.903 M98.001,474.999l0.3-8.003l0.701-7.903l1.1-7.903l1.301-7.903l1.801-7.803l2.101-7.703l2.401-7.603l2.8-7.502
		l3.102-7.303l3.401-7.202l3.801-7.003l4.102-6.902l4.301-6.703l4.702-6.402l4.902-6.302l5.302-6.002l5.502-5.802l5.702-5.502
		l6.002-5.302l6.202-5.002l6.503-4.701l6.602-4.401l6.902-4.102l7.003-3.802l7.203-3.401l7.303-3.201l7.503-2.801l7.603-2.501
		l7.603-2.101l7.803-1.801l7.903-1.4l7.903-1.101l7.903-0.7l8.003-0.3h8.003l7.903,0.3l8.002,0.7l7.903,1.101l7.803,1.4l7.803,1.801
		l7.702,2.101l7.603,2.501l7.403,2.801l7.403,3.201l7.102,3.401l7.104,3.802l6.802,4.102l6.602,4.401l6.502,4.701l6.203,5.002
		l6.002,5.302l5.802,5.502l5.502,5.802l5.202,6.002l4.901,6.302l4.702,6.402l4.401,6.703l4.102,6.902l3.701,7.003l3.402,7.202
		l3.1,7.303l2.802,7.502l2.501,7.603l2.001,7.703l1.8,7.803l1.4,7.903l1,7.903l0.701,7.903l0.3,8.003 M98.001,474.999h2.9
		 M94.9,652.465l3.102-177.466 M97.801,652.465H94.9 M100.902,474.999l-3.101,177.466 M452.431,474.999h-2.8 M452.731,652.465
		l-3.101-177.466 M455.533,652.564l-2.801-0.1 M452.431,474.999l3.102,177.565 M97.801,652.465l-0.1,2.801 M452.731,655.266H97.701
		 M452.731,652.465v2.801 M97.801,652.465h354.931"/>
	
		<path display="inline" fill="none" stroke="#000000" stroke-width="0.25" stroke-linecap="round" stroke-linejoin="round" stroke-miterlimit="10" d="
		M360.073,164.53v-49.377 M190.055,164.53v-49.377 M292.205,105.958h-0.2h-0.6h-0.899h-1.2h-1.5h-1.799h-1.999h-2.199h-2.398h-2.499
		h-2.499h-2.399h-2.499h-2.299h-2.099h-1.899h-1.699h-1.299h-1.099h-0.7h-0.399 M299.202,107.357h-0.1h-0.4h-0.7h-1.099h-1.399
		h-1.699h-1.999h-2.199h-2.499h-2.599h-2.799h-2.898h-2.999h-2.999h-2.898h-2.798h-2.799h-2.499h-2.399h-2.099h-1.899h-1.599h-1.199
		h-0.9h-0.5h-0.199 M158.17,115.153l4.998-4.998 M190.055,110.155h-3.199h-3.198h-3.099h-2.999h-2.799h-2.499h-2.299h-1.999h-1.699
		h-1.299h-1h-0.6h-0.2 M392.058,115.153l-5.098-4.998 M386.96,110.155h-0.2h-0.6h-0.899h-1.399h-1.599h-1.999h-2.299h-2.599h-2.798
		h-2.899h-3.198h-3.099h-3.298 M190.055,115.153v-4.998 M360.073,115.153v-4.998 M360.073,110.155H190.055 M158.17,115.153h0.2h0.6
		h0.899h1.399h1.799h1.999h2.399h2.699h2.898h3.198h3.299h3.398h3.499h3.599 M152.073,164.53l6.097-49.377 M398.055,164.53
		l-5.997-49.377 M360.073,115.153h3.598h3.498h3.499h3.299h3.099h2.898h2.698h2.399h2.099h1.699h1.399h1h0.6h0.2 M190.055,115.153
		h170.018 M418.445,96.563H131.683 M418.445,164.53V96.563 M131.683,164.53h286.762 M131.683,96.563v67.968 M455.227,62.579
		l-2.798-2.899 M97.798,59.68L94.9,62.579 M97.798,59.68l-0.1,2.899 M452.429,59.68v2.899 M97.798,59.68h354.63 M455.227,62.579
		h-2.798 M455.227,62.579v135.935 M452.429,201.412l2.798-2.898 M452.429,198.514h2.798 M94.9,62.579h2.799 M94.9,198.514V62.579
		 M452.429,201.412H97.798 M452.429,198.514v2.898 M97.699,198.514H94.9 M94.9,198.514l2.898,2.898 M97.699,198.514l0.1,2.898
		 M125.985,170.227h298.157 M125.985,90.865v79.361 M424.142,90.865H125.985 M424.142,170.227V90.865 M97.699,198.514h354.73
		 M452.429,198.514V62.579 M452.429,62.579H97.699 M97.699,62.579v135.935 M259.021,96.563l-1,9.396 M292.205,105.958l-1-9.396
		 M258.022,105.958l-1.399,1.399 M293.505,107.357l-1.3-1.399 M251.025,107.357l-2.899,2.798 M302.001,110.155l-2.799-2.798"/>
	
		<path display="inline" fill="none" stroke="#000000" stroke-width="0.25" stroke-linecap="round" stroke-linejoin="round" stroke-miterlimit="10" d="
		M484.144,672.273l-3.5-197.778 M480.645,474.495l-0.3-9.299l-0.799-9.399l-1.3-9.299l-1.6-9.199l-2.1-9.198l-2.5-9.1l-2.899-8.898
		l-3.3-8.801l-3.699-8.598l-4.1-8.4l-4.5-8.299l-4.799-7.999l-5.3-7.799l-5.499-7.598l-5.899-7.301l-6.2-6.999l-6.599-6.799
		l-6.799-6.398l-7.199-6.102l-7.399-5.798l-7.599-5.4l-7.899-5.099l-8.199-4.7l-8.3-4.3l-8.499-3.999l-8.699-3.5l-8.799-3.199
		l-8.999-2.7l-9.099-2.3l-9.199-2l-9.299-1.5l-9.299-1l-9.399-0.7l-9.299-0.2l-9.399,0.2l-9.398,0.7l-9.299,1l-9.299,1.5l-9.199,2
		l-9.099,2.3l-8.899,2.7l-8.899,3.199l-8.699,3.5l-8.499,3.999l-8.299,4.3l-8.099,4.7l-7.899,5.099l-7.7,5.4l-7.399,5.798
		l-7.099,6.102l-6.899,6.398l-6.5,6.799l-6.3,6.999l-5.899,7.301l-5.499,7.598l-5.199,7.799l-4.9,7.999l-4.5,8.299l-4.099,8.4
		l-3.7,8.598l-3.3,8.801l-2.9,8.898l-2.5,9.1l-2,9.198l-1.7,9.199l-1.2,9.299l-0.8,9.399l-0.4,9.299 M69.789,474.495l-3.5,197.778
		 M66.289,672.273h417.855"/>
	
		<line display="inline" fill="none" stroke="#000000" stroke-width="0.25" stroke-linecap="round" stroke-linejoin="round" stroke-miterlimit="10" x1="561.663" y1="300.901" x2="561.663" y2="655.266"/>
	
		<line display="inline" fill="none" stroke="#000000" stroke-width="0.25" stroke-linecap="round" stroke-linejoin="round" stroke-miterlimit="10" x1="569.458" y1="655.266" x2="569.458" y2="300.901"/>
	
		<line display="inline" fill="none" stroke="#000000" stroke-width="0.25" stroke-linecap="round" stroke-linejoin="round" stroke-miterlimit="10" x1="541.112" y1="276.878" x2="541.112" y2="672.273"/>
	
		<line display="inline" fill="none" stroke="#000000" stroke-width="0.25" stroke-linecap="round" stroke-linejoin="round" stroke-miterlimit="10" x1="548.907" y1="672.273" x2="548.907" y2="276.878"/>
	
		<line display="inline" fill="none" stroke="#000000" stroke-width="0.25" stroke-linecap="round" stroke-linejoin="round" stroke-miterlimit="10" x1="519" y1="478.1" x2="587" y2="478.1"/>
	
		<line display="inline" fill="none" stroke="#000000" stroke-width="0.25" stroke-linecap="round" stroke-linejoin="round" stroke-miterlimit="10" x1="561.663" y1="655.266" x2="569.458" y2="655.266"/>
	
		<line display="inline" fill="none" stroke="#000000" stroke-width="0.25" stroke-linecap="round" stroke-linejoin="round" stroke-miterlimit="10" x1="561.663" y1="300.901" x2="569.458" y2="300.901"/>
	
		<line display="inline" fill="none" stroke="#000000" stroke-width="0.25" stroke-linecap="round" stroke-linejoin="round" stroke-miterlimit="10" x1="564.497" y1="276.878" x2="564.497" y2="300.901"/>
	
		<line display="inline" fill="none" stroke="#000000" stroke-width="0.25" stroke-linecap="round" stroke-linejoin="round" stroke-miterlimit="10" x1="572.292" y1="300.901" x2="572.292" y2="276.878"/>
	
		<line display="inline" fill="none" stroke="#000000" stroke-width="0.25" stroke-linecap="round" stroke-linejoin="round" stroke-miterlimit="10" x1="569.458" y1="300.901" x2="572.292" y2="300.901"/>
	
		<line display="inline" fill="none" stroke="#000000" stroke-width="0.25" stroke-linecap="round" stroke-linejoin="round" stroke-miterlimit="10" x1="564.497" y1="276.878" x2="572.292" y2="276.878"/>
	
		<line display="inline" fill="none" stroke="#000000" stroke-width="0.25" stroke-linecap="round" stroke-linejoin="round" stroke-miterlimit="10" x1="564.497" y1="655.266" x2="564.497" y2="672.273"/>
	
		<line display="inline" fill="none" stroke="#000000" stroke-width="0.25" stroke-linecap="round" stroke-linejoin="round" stroke-miterlimit="10" x1="572.292" y1="672.273" x2="572.292" y2="655.266"/>
	
		<line display="inline" fill="none" stroke="#000000" stroke-width="0.25" stroke-linecap="round" stroke-linejoin="round" stroke-miterlimit="10" x1="564.497" y1="672.273" x2="572.292" y2="672.273"/>
	
		<line display="inline" fill="none" stroke="#000000" stroke-width="0.25" stroke-linecap="round" stroke-linejoin="round" stroke-miterlimit="10" x1="569.458" y1="655.266" x2="572.292" y2="655.266"/>
	
		<line display="inline" fill="none" stroke="#000000" stroke-width="0.25" stroke-linecap="round" stroke-linejoin="round" stroke-miterlimit="10" x1="541.112" y1="276.878" x2="548.907" y2="276.878"/>
	
		<line display="inline" fill="none" stroke="#000000" stroke-width="0.25" stroke-linecap="round" stroke-linejoin="round" stroke-miterlimit="10" x1="541.112" y1="672.273" x2="548.907" y2="672.273"/>
	<g display="inline">
		
			<rect x="270.965" y="280.386" fill="none" stroke="#000000" stroke-width="0.25" stroke-linecap="round" stroke-linejoin="round" stroke-miterlimit="10" width="8.504" height="85.04"/>
		
			<line fill="none" stroke="#000000" stroke-width="0.25" stroke-linecap="round" stroke-linejoin="round" stroke-miterlimit="10" x1="270.965" y1="297.395" x2="279.469" y2="297.395"/>
		
			<line fill="none" stroke="#000000" stroke-width="0.25" stroke-linecap="round" stroke-linejoin="round" stroke-miterlimit="10" x1="270.965" y1="320.072" x2="279.469" y2="320.072"/>
		
			<line fill="none" stroke="#000000" stroke-width="0.25" stroke-linecap="round" stroke-linejoin="round" stroke-miterlimit="10" x1="270.965" y1="342.749" x2="279.469" y2="342.749"/>
	</g>
	<g display="inline">
		
			<rect x="437.693" y="594.772" transform="matrix(-0.6891 0.7246 -0.7246 -0.6891 1208.3066 756.2313)" fill="none" stroke="#000000" stroke-width="0.25" stroke-linecap="round" stroke-linejoin="round" stroke-miterlimit="10" width="8.504" height="85.039"/>
		
			<line fill="none" stroke="#000000" stroke-width="0.25" stroke-linecap="round" stroke-linejoin="round" stroke-miterlimit="10" x1="463.361" y1="651.792" x2="457.501" y2="657.954"/>
		
			<line fill="none" stroke="#000000" stroke-width="0.25" stroke-linecap="round" stroke-linejoin="round" stroke-miterlimit="10" x1="446.928" y1="636.164" x2="441.068" y2="642.326"/>
		
			<line fill="none" stroke="#000000" stroke-width="0.25" stroke-linecap="round" stroke-linejoin="round" stroke-miterlimit="10" x1="430.496" y1="620.537" x2="424.636" y2="626.699"/>
	</g>
	<g display="inline">
		
			<rect x="104.234" y="594.77" transform="matrix(0.6891 0.7247 -0.7247 0.6891 495.5422 119.5111)" fill="none" stroke="#000000" stroke-width="0.25" stroke-linecap="round" stroke-linejoin="round" stroke-miterlimit="10" width="8.504" height="85.04"/>
		
			<line fill="none" stroke="#000000" stroke-width="0.25" stroke-linecap="round" stroke-linejoin="round" stroke-miterlimit="10" x1="87.069" y1="651.789" x2="92.93" y2="657.951"/>
		
			<line fill="none" stroke="#000000" stroke-width="0.25" stroke-linecap="round" stroke-linejoin="round" stroke-miterlimit="10" x1="103.503" y1="636.162" x2="109.363" y2="642.324"/>
		
			<line fill="none" stroke="#000000" stroke-width="0.25" stroke-linecap="round" stroke-linejoin="round" stroke-miterlimit="10" x1="119.935" y1="620.535" x2="125.795" y2="626.697"/>
	</g>
	<g display="inline">
		
			<rect x="380.698" y="325.853" transform="matrix(0.7071 0.7071 -0.7071 0.7071 373.2284 -164.3069)" fill="none" stroke="#000000" stroke-width="0.25" stroke-linecap="round" stroke-linejoin="round" stroke-miterlimit="10" width="8.504" height="85.04"/>
		
			<line fill="none" stroke="#000000" stroke-width="0.25" stroke-linecap="round" stroke-linejoin="round" stroke-miterlimit="10" x1="399.983" y1="347.327" x2="405.996" y2="353.34"/>
		
			<line fill="none" stroke="#000000" stroke-width="0.25" stroke-linecap="round" stroke-linejoin="round" stroke-miterlimit="10" x1="383.947" y1="363.363" x2="389.96" y2="369.376"/>
		
			<line fill="none" stroke="#000000" stroke-width="0.25" stroke-linecap="round" stroke-linejoin="round" stroke-miterlimit="10" x1="367.913" y1="379.397" x2="373.926" y2="385.411"/>
	</g>
	<g display="inline">
		
			<rect x="387.874" y="473.864" fill="none" stroke="#000000" stroke-width="0.25" stroke-linecap="round" stroke-linejoin="round" stroke-miterlimit="10" width="85.04" height="8.504"/>
		
			<line fill="none" stroke="#000000" stroke-width="0.25" stroke-linecap="round" stroke-linejoin="round" stroke-miterlimit="10" x1="455.905" y1="473.864" x2="455.905" y2="482.368"/>
		
			<line fill="none" stroke="#000000" stroke-width="0.25" stroke-linecap="round" stroke-linejoin="round" stroke-miterlimit="10" x1="433.227" y1="473.864" x2="433.227" y2="482.368"/>
		
			<line fill="none" stroke="#000000" stroke-width="0.25" stroke-linecap="round" stroke-linejoin="round" stroke-miterlimit="10" x1="410.551" y1="473.864" x2="410.551" y2="482.368"/>
	</g>
	<g display="inline">
		
			<rect x="270.932" y="590.773" fill="none" stroke="#000000" stroke-width="0.25" stroke-linecap="round" stroke-linejoin="round" stroke-miterlimit="10" width="8.504" height="85.039"/>
		
			<line fill="none" stroke="#000000" stroke-width="0.25" stroke-linecap="round" stroke-linejoin="round" stroke-miterlimit="10" x1="279.436" y1="658.805" x2="270.932" y2="658.805"/>
		
			<line fill="none" stroke="#000000" stroke-width="0.25" stroke-linecap="round" stroke-linejoin="round" stroke-miterlimit="10" x1="279.436" y1="636.127" x2="270.932" y2="636.127"/>
		
			<line fill="none" stroke="#000000" stroke-width="0.25" stroke-linecap="round" stroke-linejoin="round" stroke-miterlimit="10" x1="279.436" y1="613.45" x2="270.932" y2="613.45"/>
	</g>
	<g display="inline">
		
			<rect x="77.487" y="473.831" fill="none" stroke="#000000" stroke-width="0.25" stroke-linecap="round" stroke-linejoin="round" stroke-miterlimit="10" width="85.039" height="8.504"/>
		
			<line fill="none" stroke="#000000" stroke-width="0.25" stroke-linecap="round" stroke-linejoin="round" stroke-miterlimit="10" x1="94.495" y1="482.335" x2="94.495" y2="473.831"/>
		
			<line fill="none" stroke="#000000" stroke-width="0.25" stroke-linecap="round" stroke-linejoin="round" stroke-miterlimit="10" x1="117.173" y1="482.335" x2="117.173" y2="473.831"/>
		
			<line fill="none" stroke="#000000" stroke-width="0.25" stroke-linecap="round" stroke-linejoin="round" stroke-miterlimit="10" x1="139.85" y1="482.335" x2="139.85" y2="473.831"/>
	</g>
	<g display="inline">
		
			<rect x="161.221" y="325.83" transform="matrix(0.7071 -0.7071 0.7071 0.7071 -211.9965 224.8945)" fill="none" stroke="#000000" stroke-width="0.25" stroke-linecap="round" stroke-linejoin="round" stroke-miterlimit="10" width="8.504" height="85.039"/>
		
			<line fill="none" stroke="#000000" stroke-width="0.25" stroke-linecap="round" stroke-linejoin="round" stroke-miterlimit="10" x1="144.427" y1="353.317" x2="150.44" y2="347.304"/>
		
			<line fill="none" stroke="#000000" stroke-width="0.25" stroke-linecap="round" stroke-linejoin="round" stroke-miterlimit="10" x1="160.463" y1="369.353" x2="166.476" y2="363.339"/>
		
			<line fill="none" stroke="#000000" stroke-width="0.25" stroke-linecap="round" stroke-linejoin="round" stroke-miterlimit="10" x1="176.498" y1="385.387" x2="182.511" y2="379.374"/>
	</g>
	
		<polyline display="inline" fill="none" stroke="#000000" stroke-width="0.25" stroke-linecap="round" stroke-linejoin="round" stroke-miterlimit="10" points="
		179.627,272.616 74.744,272.617 72.497,379.557 	"/>
	
		<polyline display="inline" fill="none" stroke="#000000" stroke-width="0.25" stroke-linecap="round" stroke-linejoin="round" stroke-miterlimit="10" points="
		477.936,379.571 475.687,272.614 370.819,272.615 	"/>
</g>
<g id="Main" display="none">
	<path display="inline" fill="none" stroke="#000000" stroke-linecap="round" stroke-linejoin="round" stroke-miterlimit="10" d="
		M452.399,478.1c0-97.864-79.334-177.199-177.199-177.199S98.001,380.235,98.001,478.1l0,0L94.9,652.465l2.801,2.801h355.03
		l2.801-2.701L452.399,478.1"/>
	
		<polyline display="inline" fill="none" stroke="#000000" stroke-linecap="round" stroke-linejoin="round" stroke-miterlimit="10" points="
		477.936,379.571 483.732,655.266 66.705,655.266 72.497,379.557 	"/>
	
		<polyline display="inline" fill="none" stroke="#000000" stroke-linecap="round" stroke-linejoin="round" stroke-miterlimit="10" points="
		72.497,379.557 179.627,272.614 179.627,272.616 370.819,272.615 370.819,272.622 477.936,379.571 	"/>
	
		<polygon display="inline" fill="none" stroke="#000000" stroke-linecap="round" stroke-linejoin="round" stroke-miterlimit="10" points="
		1033.869,379.571 1039.666,655.266 622.638,655.266 628.431,379.557 735.561,272.614 735.561,272.616 926.752,272.615 
		926.752,272.622 	"/>
	<path display="inline" fill="none" stroke="#000000" stroke-linecap="round" stroke-linejoin="round" stroke-miterlimit="10" d="
		M483.732,655.266"/>
	<path display="inline" fill="none" stroke="#000000" stroke-linecap="round" stroke-linejoin="round" stroke-miterlimit="10" d="
		M452.731,655.266"/>
</g>
<g id="Inserts" display="none">
	
		<rect x="270.965" y="320.072" display="inline" fill="none" stroke="#000000" stroke-linecap="round" stroke-linejoin="round" stroke-miterlimit="10" width="8.504" height="22.677"/>
	
		<rect x="424.444" y="627.18" transform="matrix(-0.7246 -0.6891 0.6891 -0.7246 316.4277 1389.3014)" display="inline" fill="none" stroke="#000000" stroke-linecap="round" stroke-linejoin="round" stroke-miterlimit="10" width="22.676" height="8.504"/>
	
		<rect x="103.311" y="627.178" transform="matrix(0.7246 -0.6891 0.6891 0.7246 -403.5673 252.8801)" display="inline" fill="none" stroke="#000000" stroke-linecap="round" stroke-linejoin="round" stroke-miterlimit="10" width="22.676" height="8.504"/>
	
		<rect x="367.598" y="370.135" transform="matrix(-0.7071 0.7071 -0.7071 -0.7071 911.6165 371.1695)" display="inline" fill="none" stroke="#000000" stroke-linecap="round" stroke-linejoin="round" stroke-miterlimit="10" width="22.676" height="8.504"/>
	
		<rect x="410.551" y="473.864" display="inline" fill="none" stroke="#000000" stroke-linecap="round" stroke-linejoin="round" stroke-miterlimit="10" width="22.676" height="8.504"/>
	
		<rect x="270.932" y="613.45" display="inline" fill="none" stroke="#000000" stroke-linecap="round" stroke-linejoin="round" stroke-miterlimit="10" width="8.504" height="22.677"/>
	
		<rect x="117.173" y="473.831" display="inline" fill="none" stroke="#000000" stroke-linecap="round" stroke-linejoin="round" stroke-miterlimit="10" width="22.677" height="8.504"/>
	
		<rect x="160.149" y="370.111" transform="matrix(0.7071 0.7071 -0.7071 0.7071 314.9363 -11.6134)" display="inline" fill="none" stroke="#000000" stroke-linecap="round" stroke-linejoin="round" stroke-miterlimit="10" width="22.677" height="8.504"/>
	
		<rect x="826.898" y="320.072" display="inline" fill="none" stroke="#000000" stroke-linecap="round" stroke-linejoin="round" stroke-miterlimit="10" width="8.504" height="22.677"/>
	
		<rect x="980.378" y="627.18" transform="matrix(-0.7246 -0.6891 0.6891 -0.7246 1275.1947 1772.4163)" display="inline" fill="none" stroke="#000000" stroke-linecap="round" stroke-linejoin="round" stroke-miterlimit="10" width="22.676" height="8.503"/>
	
		<rect x="659.244" y="627.178" transform="matrix(0.7246 -0.6891 0.6891 0.7246 -250.484 635.9907)" display="inline" fill="none" stroke="#000000" stroke-linecap="round" stroke-linejoin="round" stroke-miterlimit="10" width="22.676" height="8.504"/>
	
		<rect x="923.532" y="370.135" transform="matrix(-0.7071 0.7071 -0.7071 -0.7071 1860.6605 -21.9208)" display="inline" fill="none" stroke="#000000" stroke-linecap="round" stroke-linejoin="round" stroke-miterlimit="10" width="22.677" height="8.504"/>
	
		<rect x="966.484" y="473.864" display="inline" fill="none" stroke="#000000" stroke-linecap="round" stroke-linejoin="round" stroke-miterlimit="10" width="22.676" height="8.504"/>
	
		<rect x="826.865" y="613.45" display="inline" fill="none" stroke="#000000" stroke-linecap="round" stroke-linejoin="round" stroke-miterlimit="10" width="8.504" height="22.677"/>
	
		<rect x="673.106" y="473.831" display="inline" fill="none" stroke="#000000" stroke-linecap="round" stroke-linejoin="round" stroke-miterlimit="10" width="22.677" height="8.504"/>
	
		<rect x="716.083" y="370.111" transform="matrix(0.7071 0.7071 -0.7071 0.7071 477.7596 -404.712)" display="inline" fill="none" stroke="#000000" stroke-linecap="round" stroke-linejoin="round" stroke-miterlimit="10" width="22.677" height="8.504"/>
	
		<polygon display="inline" fill="none" stroke="#000000" stroke-linecap="round" stroke-linejoin="round" stroke-miterlimit="10" points="
		564.497,280.386 564.497,297.395 561.663,297.395 561.663,320.072 567.332,320.072 567.332,342.749 561.663,342.749 
		561.663,365.426 548.907,365.426 548.907,342.749 543.238,342.749 543.238,320.072 548.907,320.072 548.907,280.386 	"/>
</g>
<g id="txt" display="none">
	<rect x="206.127" y="551" display="inline" fill="none" width="137.873" height="35"/>
	<text transform="matrix(1 0 0 1 224.2925 559.5195)" display="inline"><tspan x="0" y="0" font-family="'MyriadPro-Regular'" font-size="12">Фреза должна идти </tspan><tspan x="-15.798" y="14.4" font-family="'MyriadPro-Regular'" font-size="12">внутри прямоугольников</tspan></text>
	<rect x="209.063" y="688" display="inline" fill="none" width="132" height="33"/>
	<text transform="matrix(1 0 0 1 233.2441 696.5195)" display="inline"><tspan x="0" y="0" font-family="'MyriadPro-Regular'" font-size="12">Важны размеры </tspan><tspan x="-0.678" y="14.4" font-family="'MyriadPro-Regular'" font-size="12">внешней детали</tspan></text>
</g>
<g id="txt2" display="none">
	<rect x="537.45" y="326" display="inline" fill="none" width="36" height="22"/>
	<text transform="matrix(1 0 0 1 552.3721 334.52)" display="inline" font-family="'MyriadPro-Regular'" font-size="12">8</text>
	<rect x="371.96" y="631.326" display="inline" fill="none" width="36" height="22"/>
	<text transform="matrix(1 0 0 1 386.8823 639.8457)" display="inline" font-family="'MyriadPro-Regular'" font-size="12">1</text>
	<rect x="1002.861" y="625.127" display="inline" fill="none" width="36" height="22"/>
	<text transform="matrix(1 0 0 1 1017.7832 633.6465)" display="inline" font-family="'MyriadPro-Regular'" font-size="12">1</text>
	<rect x="452.731" y="631.324" display="inline" fill="none" width="36" height="22"/>
	<text transform="matrix(1 0 0 1 467.6533 639.8438)" display="inline" font-family="'MyriadPro-Regular'" font-size="12">1</text>
</g>
<g id="Mold_casing">
	<polyline fill="#FFFFFF" stroke="#000000" stroke-miterlimit="10" points="170.546,272.617 498.371,272.617 498.371,249.939 
		52.067,249.939 52.067,272.617 170.546,272.617 	"/>
	<polyline fill="#FFFFFF" stroke="#000000" stroke-miterlimit="10" points="166.854,678.014 506.242,678.014 506.242,655.337 
		44.196,655.337 44.196,678.014 166.854,678.014 	"/>
	<polyline fill="none" stroke="#000000" stroke-miterlimit="10" points="166.854,229.759 506.242,229.759 506.242,31.333 
		44.196,31.333 44.196,229.759 166.854,229.759 	"/>
	<polyline fill="#FFFFFF" stroke="#000000" stroke-miterlimit="10" points="72.839,366.091 74.751,273.436 52.079,272.968 
		44.196,654.867 66.87,655.336 72.839,366.091 	"/>
	<polyline fill="#FFFFFF" stroke="#000000" stroke-miterlimit="10" points="477.591,366.071 475.669,273.415 498.341,272.945 
		506.264,654.844 483.59,655.314 477.591,366.071 	"/>
	<polyline fill="#FFFFFF" stroke="#000000" stroke-miterlimit="10" points="72.839,366.091 74.751,273.436 52.079,272.968 
		44.196,654.867 66.87,655.336 72.839,366.091 	"/>
	<polygon fill="none" stroke="#000000" stroke-linecap="round" stroke-linejoin="round" stroke-miterlimit="10" points="
		170.546,272.617 72.753,370.239 74.751,272.617 	"/>
	<polygon fill="none" stroke="#000000" stroke-linecap="round" stroke-linejoin="round" stroke-miterlimit="10" points="
		379.879,272.61 477.678,370.226 475.673,272.604 	"/>
</g>
</svg>
